<mxfile host="app.diagrams.net" agent="Mozilla/5.0 (Windows NT 10.0; Win64; x64) AppleWebKit/537.36 (KHTML, like Gecko) Chrome/137.0.0.0 Safari/537.36" version="27.1.4">
  <diagram name="Página-1" id="bfNclRx6qYKhGHA40akg">
    <mxGraphModel dx="870" dy="445" grid="1" gridSize="10" guides="1" tooltips="1" connect="1" arrows="1" fold="1" page="1" pageScale="1" pageWidth="827" pageHeight="1169" math="0" shadow="0">
      <root>
        <mxCell id="0" />
        <mxCell id="1" parent="0" />
        <mxCell id="FM03_QXCqgYBUGcsR0oJ-1" value="Diagrama de Atividade - Editar Perfil (Foto)" style="shape=umlFrame;whiteSpace=wrap;html=1;pointerEvents=0;width=260;height=30;" vertex="1" parent="1">
          <mxGeometry x="160" y="140" width="560" height="200" as="geometry" />
        </mxCell>
        <mxCell id="FM03_QXCqgYBUGcsR0oJ-6" value="" style="edgeStyle=orthogonalEdgeStyle;rounded=0;orthogonalLoop=1;jettySize=auto;html=1;" edge="1" parent="1" source="FM03_QXCqgYBUGcsR0oJ-2" target="FM03_QXCqgYBUGcsR0oJ-4">
          <mxGeometry relative="1" as="geometry" />
        </mxCell>
        <mxCell id="FM03_QXCqgYBUGcsR0oJ-2" value="" style="ellipse;html=1;shape=startState;fillColor=#000000;strokeColor=#ff0000;" vertex="1" parent="1">
          <mxGeometry x="190" y="200" width="30" height="30" as="geometry" />
        </mxCell>
        <mxCell id="FM03_QXCqgYBUGcsR0oJ-8" value="" style="edgeStyle=orthogonalEdgeStyle;rounded=0;orthogonalLoop=1;jettySize=auto;html=1;" edge="1" parent="1" source="FM03_QXCqgYBUGcsR0oJ-4" target="FM03_QXCqgYBUGcsR0oJ-7">
          <mxGeometry relative="1" as="geometry" />
        </mxCell>
        <mxCell id="FM03_QXCqgYBUGcsR0oJ-4" value="Clicar em Editar Perfil" style="rounded=1;whiteSpace=wrap;html=1;arcSize=40;fontColor=#000000;fillColor=#ffffc0;strokeColor=#ff0000;" vertex="1" parent="1">
          <mxGeometry x="254" y="195" width="116" height="40" as="geometry" />
        </mxCell>
        <mxCell id="FM03_QXCqgYBUGcsR0oJ-13" value="" style="edgeStyle=orthogonalEdgeStyle;rounded=0;orthogonalLoop=1;jettySize=auto;html=1;" edge="1" parent="1" source="FM03_QXCqgYBUGcsR0oJ-7" target="FM03_QXCqgYBUGcsR0oJ-9">
          <mxGeometry relative="1" as="geometry" />
        </mxCell>
        <mxCell id="FM03_QXCqgYBUGcsR0oJ-7" value="Clicar em Alterar Foto" style="rounded=1;whiteSpace=wrap;html=1;arcSize=40;fontColor=#000000;fillColor=#ffffc0;strokeColor=#ff0000;" vertex="1" parent="1">
          <mxGeometry x="400" y="195" width="116" height="40" as="geometry" />
        </mxCell>
        <mxCell id="FM03_QXCqgYBUGcsR0oJ-14" value="" style="edgeStyle=orthogonalEdgeStyle;rounded=0;orthogonalLoop=1;jettySize=auto;html=1;" edge="1" parent="1" source="FM03_QXCqgYBUGcsR0oJ-9" target="FM03_QXCqgYBUGcsR0oJ-10">
          <mxGeometry relative="1" as="geometry" />
        </mxCell>
        <mxCell id="FM03_QXCqgYBUGcsR0oJ-9" value="Selecionar uma nova imagem" style="rounded=1;whiteSpace=wrap;html=1;arcSize=40;fontColor=#000000;fillColor=#ffffc0;strokeColor=#ff0000;" vertex="1" parent="1">
          <mxGeometry x="550" y="195" width="116" height="40" as="geometry" />
        </mxCell>
        <mxCell id="FM03_QXCqgYBUGcsR0oJ-15" style="edgeStyle=orthogonalEdgeStyle;rounded=0;orthogonalLoop=1;jettySize=auto;html=1;entryX=1;entryY=0.5;entryDx=0;entryDy=0;" edge="1" parent="1" source="FM03_QXCqgYBUGcsR0oJ-10" target="FM03_QXCqgYBUGcsR0oJ-9">
          <mxGeometry relative="1" as="geometry">
            <Array as="points">
              <mxPoint x="686" y="300" />
              <mxPoint x="686" y="215" />
            </Array>
          </mxGeometry>
        </mxCell>
        <mxCell id="FM03_QXCqgYBUGcsR0oJ-16" value="Não" style="edgeLabel;html=1;align=center;verticalAlign=middle;resizable=0;points=[];" vertex="1" connectable="0" parent="FM03_QXCqgYBUGcsR0oJ-15">
          <mxGeometry x="-0.7483" relative="1" as="geometry">
            <mxPoint y="-10" as="offset" />
          </mxGeometry>
        </mxCell>
        <mxCell id="FM03_QXCqgYBUGcsR0oJ-18" value="" style="edgeStyle=orthogonalEdgeStyle;rounded=0;orthogonalLoop=1;jettySize=auto;html=1;" edge="1" parent="1" source="FM03_QXCqgYBUGcsR0oJ-10" target="FM03_QXCqgYBUGcsR0oJ-17">
          <mxGeometry relative="1" as="geometry" />
        </mxCell>
        <mxCell id="FM03_QXCqgYBUGcsR0oJ-19" value="Sim" style="edgeLabel;html=1;align=center;verticalAlign=middle;resizable=0;points=[];" vertex="1" connectable="0" parent="FM03_QXCqgYBUGcsR0oJ-18">
          <mxGeometry y="1" relative="1" as="geometry">
            <mxPoint y="-11" as="offset" />
          </mxGeometry>
        </mxCell>
        <mxCell id="FM03_QXCqgYBUGcsR0oJ-10" value="" style="rhombus;whiteSpace=wrap;html=1;fontColor=#000000;fillColor=#ffffc0;strokeColor=#ff0000;" vertex="1" parent="1">
          <mxGeometry x="568" y="280" width="80" height="40" as="geometry" />
        </mxCell>
        <mxCell id="FM03_QXCqgYBUGcsR0oJ-17" value="Selecionar uma nova imagem" style="rounded=1;whiteSpace=wrap;html=1;arcSize=40;fontColor=#000000;fillColor=#ffffc0;strokeColor=#ff0000;" vertex="1" parent="1">
          <mxGeometry x="400" y="280" width="116" height="40" as="geometry" />
        </mxCell>
      </root>
    </mxGraphModel>
  </diagram>
</mxfile>
